<?xml version="1.0" encoding="utf-8"?>
<!-- Svg Vector Icons : http://www.onlinewebfonts.com/icon -->
<!DOCTYPE svg PUBLIC "-//W3C//DTD SVG 1.1//EN" "http://www.w3.org/Graphics/SVG/1.1/DTD/svg11.dtd">
<svg version="1.1" xmlns="http://www.w3.org/2000/svg" xmlns:xlink="http://www.w3.org/1999/xlink" x="0px" y="0px" viewBox="0 0 1000 1000" enable-background="new 0 0 1000 1000" xml:space="preserve">
<metadata> Svg Vector Icons : http://www.onlinewebfonts.com/icon </metadata>
<g><g transform="translate(0.000000,511.000000) scale(0.100000,-0.100000)"><path d="M7225.3,2900.8l-6.1-2109.2l-423.1-267.7L6373,258.2L6371-216v-476.2l261.6,165.5c143.1,92,329,212.6,414.9,265.7c85.8,55.2,161.5,100.2,167.6,100.2c8.2,0,14.3-766.4,14.3-1700.4c0-1804.7,6.1-1937.5,98.1-2205.2c124.7-355.6,341.3-576.4,666.3-676.5c118.5-36.8,194.1-45,421-47c259.6,0,529.3,38.8,607,87.9c20.4,12.3,10.2,106.3-45,412.9c-38.8,218.7-71.5,404.7-71.5,412.8c0,6.1-71.5,8.2-157.4,2c-143.1-10.2-165.5-6.1-228.9,36.8c-38.8,26.6-89.9,85.8-112.4,130.8c-42.9,81.7-42.9,98.1-47,2115.3l-4.1,2033.6l459.8,294.3c253.4,163.5,466,304.5,470.1,316.8c4.1,14.3,6.1,226.9,4.1,474.2l-6.1,449.6l-449.6-290.2c-247.3-161.5-455.8-292.3-463.9-292.3c-10.2-2.1-16.3,811.4-16.3,1806.7V5010h-562.1h-562.1L7225.3,2900.8z"/><path d="M1098,1494.7V1045h1534.9c1228.3,0,1532.8-6.1,1524.7-26.6c-4.1-14.3-308.6-461.9-672.4-995.3c-363.8-533.4-1138.4-1667.7-1718.8-2518L709.7-4042v-298.4v-296.4h2493.4h2493.4v449.6v449.6H3908.2c-983.1,0-1788.3,4.1-1788.3,8.2c0,8.2,1293.7,1904.8,3251.7,4772.2l202.4,296.4v302.5v302.5H3336H1098V1494.7z"/></g></g>
</svg>