<?xml version="1.0" encoding="utf-8"?>
<!-- Svg Vector Icons : http://www.onlinewebfonts.com/icon -->
<!DOCTYPE svg PUBLIC "-//W3C//DTD SVG 1.1//EN" "http://www.w3.org/Graphics/SVG/1.1/DTD/svg11.dtd">
<svg version="1.1" xmlns="http://www.w3.org/2000/svg" xmlns:xlink="http://www.w3.org/1999/xlink" x="0px" y="0px" viewBox="0 0 1000 1000" enable-background="new 0 0 1000 1000" xml:space="preserve">
<metadata> Svg Vector Icons : http://www.onlinewebfonts.com/icon </metadata>
<g><g transform="translate(0.000000,511.000000) scale(0.100000,-0.100000)"><path d="M2435.2,4985.5c-6.1-14.3-73.5-669.9-153.2-1456.3c-79.7-786.4-149.1-1454.3-155.2-1484.9l-8.2-57.2h177.7H2474l38.8,138.9c167.5,588.2,471.8,1160.2,810.9,1523.7c357.4,384,866,661.8,1366.4,749.6c239,40.8,610.7,32.7,825.2-20.4c502.4-120.5,896.6-492.2,1002.9-945.7c40.8-171.6,38.8-480-2-647.5c-124.6-498.4-471.8-892.6-1239.8-1407.3l-283.9-187.9H3411.6H1830.6V894.3V598.2l1058-2.1c825.2,0,1047.8-6.1,1017.2-24.5c-510.6-326.8-776.2-514.7-1023.3-725.1L2760-259.7h-463.7h-465.7v-286v-286h204.2c112.3,0,204.3-6.1,204.3-12.2s-40.8-79.7-91.9-161.4c-204.3-337-310.5-690.4-330.9-1092.7c-20.4-445.3,53.1-800.7,249.2-1194.9c480-970.2,1570.7-1552.3,2798.2-1493.1c480,22.5,784.3,81.7,1409.3,277.8c500.4,157.3,743.5,212.4,837.4,196.1c138.9-26.5,294.1-210.4,326.8-386l14.3-75.6h151.1c138.9,0,151.2,4.1,161.4,47c4.1,24.5,98,669.9,204.3,1433.8c108.2,763.9,200.2,1419.6,206.3,1456.3l12.3,65.4h-161.4h-161.3l-69.5-157.3c-482-1121.3-1092.7-1848.5-1805.6-2156.9c-100.1-42.9-279.8-102.1-398.3-130.7c-192-49-257.4-55.2-584.2-55.2c-408.5-2-596.4,30.6-853.8,149.1c-337,151.1-637.3,445.3-772.1,751.6c-206.3,465.7-179.7,1098.9,65.4,1536c161.3,285.9,539.2,659.7,937.5,927.3l112.3,75.6h1842.3h1844.4v286v286H6832.8c-768,0-1344,8.2-1337.8,18.4s96,65.4,198.1,122.6c275.7,157.3,735.3,455.5,919.1,594.4l159.3,122.5h706.7h704.7v296.2v296.2h-418.7c-230.8,0-418.7,6.1-418.7,12.3c0,6.1,26.6,49,59.2,96c349.3,510.6,459.6,1290.9,275.7,1977.2c-100.1,375.8-324.8,747.6-614.8,1019.2c-682.2,637.3-1456.3,837.4-2459.2,633.2c-108.2-22.5-422.8-114.4-696.5-202.2c-614.8-198.1-702.6-218.5-831.3-185.9c-51.1,12.3-122.5,44.9-159.3,73.5c-65.3,49-153.2,212.4-179.7,330.9l-14.3,65.4h-140.9C2488.3,5010,2439.3,5001.8,2435.2,4985.5z"/></g></g>
</svg>